<svg xmlns="http://www.w3.org/2000/svg" viewBox="0 0 160 160"><defs><linearGradient id="w" x1="0" y1="0" x2="1" y2="1"><stop stop-color="#9b6944"/><stop offset=".5" stop-color="#56331e"/><stop offset="1" stop-color="#2f1b10"/></linearGradient><linearGradient id="m" x1="0" y1="0" x2="0" y2="1"><stop stop-color="#f0d78b"/><stop offset=".45" stop-color="#a36b25"/><stop offset="1" stop-color="#5d3713"/></linearGradient></defs><ellipse cx="78" cy="145" rx="53" ry="8" fill="#000" opacity=".28"/><path d="M112 48q35-4 36 29t-36 34" fill="none" stroke="#8c6027" stroke-width="15"/><path d="M28 34h86v93q0 18-18 18H48q-20 0-20-18z" fill="url(#w)" stroke="#3a2113" stroke-width="5"/><g stroke="#c3954f" opacity=".35"><path d="M48 42v90M69 42v94M91 42v92"/></g><rect x="23" y="36" width="96" height="16" rx="8" fill="url(#m)"/><rect x="25" y="82" width="91" height="12" rx="6" fill="url(#m)"/><rect x="25" y="124" width="88" height="12" rx="6" fill="url(#m)"/><g fill="#fff4dc"><circle cx="38" cy="34" r="12"/><circle cx="55" cy="28" r="14"/><circle cx="75" cy="31" r="15"/><circle cx="96" cy="27" r="13"/><circle cx="111" cy="34" r="11"/></g><path d="M49 67h45v38H49z" rx="8" fill="#321d12" stroke="#c08b38" stroke-width="3"/><path d="M53 78l10 8 9-18 9 18 10-8-4 20H57z" fill="#efc65f" stroke="#754414" stroke-width="2"/></svg>